<?xml version="1.0" encoding="UTF-8"?>
<svg xmlns="http://www.w3.org/2000/svg" viewBox="0 0 2000 2000">
  <defs>
    <style>
      .cls-1, .cls-2 {
        fill: #3d3688;
      }

      .cls-2 {
        stroke: #000;
        stroke-miterlimit: 10;
      }
    </style>
  </defs>
  <g id="Layer_2" data-name="Layer 2">
    <g>
      <g>
        <path class="cls-1" d="m416.07,1465.91c-59.23,0-114.91-23.07-156.8-64.95-41.88-41.88-64.95-97.57-64.95-156.8v-120.17c0-60.6,22.59-116.41,63.61-157.15,41-40.73,97.16-63.16,158.13-63.16h175.07c60.97,0,117.12,22.43,158.13,63.16,41.02,40.74,63.61,96.55,63.61,157.15v120.17c0,59.23-23.07,114.91-64.95,156.8-41.88,41.88-97.57,64.95-156.8,64.95h-175.06Zm18.23-456.61c-73.68,0-121.29,47.33-121.29,120.57v109.66c0,73.88,46.48,119.77,121.29,119.77h138.39c73.19,0,120.49-47.01,120.49-119.77v-109.81c0-66.4-54.02-120.42-120.42-120.42h-138.46Z"/>
        <path d="m591.14,904.19c60.83,0,116.87,22.38,157.78,63.01,40.92,40.64,63.46,96.33,63.46,156.8v120.17c0,29.87-5.85,58.84-17.39,86.12-11.14,26.35-27.1,50.01-47.41,70.32-20.32,20.32-43.98,36.27-70.32,47.41-27.28,11.54-56.25,17.39-86.12,17.39h-175.06c-29.87,0-58.84-5.85-86.12-17.39-26.35-11.14-50.01-27.1-70.32-47.41-20.32-20.32-36.27-43.98-47.41-70.32-11.54-27.28-17.39-56.25-17.39-86.12v-120.17c0-60.47,22.54-116.15,63.46-156.8,40.91-40.63,96.94-63.01,157.78-63.01h175.07m-156.83,455.6h138.39c73.5,0,120.99-47.21,120.99-120.27v-109.81c0-32.3-12.58-62.66-35.42-85.5-22.84-22.84-53.2-35.42-85.5-35.42h-138.46c-73.98,0-121.79,47.52-121.79,121.07v109.66c0,74.18,46.67,120.27,121.79,120.27m156.83-456.6h-175.07c-126.31,0-222.24,95.2-222.24,220.81v120.17c0,122.74,99.5,222.24,222.24,222.24h175.06c122.74,0,222.24-99.5,222.24-222.24v-120.17c0-125.6-95.93-220.81-222.24-220.81h0Zm-156.83,455.6c-74.39,0-120.79-45.63-120.79-119.27v-109.66c0-72.84,47.2-120.07,120.79-120.07h138.46c66.23,0,119.92,53.69,119.92,119.92v109.81c0,72.04-46.4,119.27-119.99,119.27h-138.39Z"/>
      </g>
      <g>
        <path class="cls-1" d="m1364.99,753.12c-.1-33-9.9-61.27-28.36-81.77-19.11-21.22-46.18-32.43-78.28-32.43h-514.77c-36.65,0-67.2,10.35-88.33,29.92-21.46,19.87-32.85,49.01-32.96,84.28h-118.68c.12-60.41,22.7-116.02,63.6-156.65,41-40.73,97.16-63.16,158.13-63.16h537.61c60.97,0,117.12,22.43,158.13,63.16,40.9,40.63,63.48,96.24,63.6,156.65h-119.69Z"/>
        <path d="m1262.94,533.81c60.83,0,116.87,22.38,157.78,63.01,40.7,40.42,63.21,95.71,63.46,155.8h-118.69c-.2-32.91-10.04-61.11-28.49-81.6-19.21-21.32-46.4-32.59-78.65-32.59h-514.77c-36.78,0-67.44,10.39-88.67,30.05-21.46,19.88-32.9,48.95-33.11,84.15h-117.69c.25-60.08,22.76-115.38,63.46-155.8,40.91-40.63,96.94-63.01,157.78-63.01h537.61m0-1h-537.61c-126.31,0-222.24,95.2-222.24,220.81h119.68c0-72.84,47.2-114.2,120.79-114.2h514.77c66.23,0,106.14,47.97,106.14,114.2h120.69c0-125.6-95.93-220.81-222.24-220.81h0Z"/>
      </g>
      <polyline class="cls-2" points="924.63 753.67 924.63 1467.19 1031.24 1467.19 1031.24 753.62"/>
      <path class="cls-2" d="m1296.56,903.76h24.79c156.41,0,156.41,84.82,156.41,196.78h-106.61c-2.21-61.95,5.86-92.7-49.8-94.68h-24.79"/>
      <path class="cls-2" d="m1296.56,903.76c-157.73,0-157.73,84.82-157.73,196.78h106.57c2.21-61.95-4.51-92.7,51.16-94.68"/>
      <path class="cls-2" d="m1528.88,903.76h24.79c156.41,0,156.41,84.82,156.41,196.78h-106.61c-2.21-61.95,5.86-92.7-49.8-94.68h-24.79"/>
      <path class="cls-2" d="m1528.88,903.76c-157.73,0-157.73,84.82-157.73,196.78h106.57c2.21-61.95-4.51-92.7,51.16-94.68"/>
      <path class="cls-2" d="m1603.47,1243.35c0,126.31,77.09,222.24,202.69,222.24v-119.79c-69.5-2.48-96.09-30.88-96.09-102.48"/>
      <polyline class="cls-2" points="1138.83 1092.86 1138.83 1467.19 1245.44 1467.19 1245.44 1092.83"/>
      <polyline class="cls-2" points="1371.15 1092.86 1371.15 1467.19 1477.76 1467.19 1477.76 1092.83"/>
      <polyline class="cls-2" points="1603.47 1100.54 1603.67 1243.37 1710.28 1243.37 1710.08 1092.83"/>
    </g>
  </g>
  <g id="Layer_2_copy" data-name="Layer 2 copy">
    <g>
      <g>
        <path class="cls-1" d="m416.07,1465.91c-59.23,0-114.91-23.07-156.8-64.95-41.88-41.88-64.95-97.57-64.95-156.8v-120.17c0-60.6,22.59-116.41,63.61-157.15,41-40.73,97.16-63.16,158.13-63.16h175.07c60.97,0,117.12,22.43,158.13,63.16,41.02,40.74,63.61,96.55,63.61,157.15v120.17c0,59.23-23.07,114.91-64.95,156.8-41.88,41.88-97.57,64.95-156.8,64.95h-175.06Zm18.23-456.61c-73.68,0-121.29,47.33-121.29,120.57v109.66c0,73.88,46.48,119.77,121.29,119.77h138.39c73.19,0,120.49-47.01,120.49-119.77v-109.81c0-66.4-54.02-120.42-120.42-120.42h-138.46Z"/>
        <path d="m591.14,904.19c60.83,0,116.87,22.38,157.78,63.01,40.92,40.64,63.46,96.33,63.46,156.8v120.17c0,29.87-5.85,58.84-17.39,86.12-11.14,26.35-27.1,50.01-47.41,70.32-20.32,20.32-43.98,36.27-70.32,47.41-27.28,11.54-56.25,17.39-86.12,17.39h-175.06c-29.87,0-58.84-5.85-86.12-17.39-26.35-11.14-50.01-27.1-70.32-47.41-20.32-20.32-36.27-43.98-47.41-70.32-11.54-27.28-17.39-56.25-17.39-86.12v-120.17c0-60.47,22.54-116.15,63.46-156.8,40.91-40.63,96.94-63.01,157.78-63.01h175.07m-156.83,455.6h138.39c73.5,0,120.99-47.21,120.99-120.27v-109.81c0-32.3-12.58-62.66-35.42-85.5-22.84-22.84-53.2-35.42-85.5-35.42h-138.46c-73.98,0-121.79,47.52-121.79,121.07v109.66c0,74.18,46.67,120.27,121.79,120.27m156.83-456.6h-175.07c-126.31,0-222.24,95.2-222.24,220.81v120.17c0,122.74,99.5,222.24,222.24,222.24h175.06c122.74,0,222.24-99.5,222.24-222.24v-120.17c0-125.6-95.93-220.81-222.24-220.81h0Zm-156.83,455.6c-74.39,0-120.79-45.63-120.79-119.27v-109.66c0-72.84,47.2-120.07,120.79-120.07h138.46c66.23,0,119.92,53.69,119.92,119.92v109.81c0,72.04-46.4,119.27-119.99,119.27h-138.39Z"/>
      </g>
      <path class="cls-2" d="m503.1,753.62c0-125.6,95.93-220.81,222.24-220.81h537.61c126.31,0,222.24,95.2,222.24,220.81m-120.69,0c0-66.23-39.91-114.2-106.14-114.2h-514.77c-73.59,0-120.79,41.36-120.79,114.2"/>
      <polyline class="cls-2" points="924.63 753.67 924.63 1467.19 1031.24 1467.19 1031.24 753.62"/>
      <path class="cls-2" d="m1296.56,903.76h24.79c156.41,0,156.41,84.82,156.41,196.78h-106.61c-2.21-61.95,5.86-92.7-49.8-94.68h-24.79"/>
      <path class="cls-2" d="m1296.56,903.76c-157.73,0-157.73,84.82-157.73,196.78h106.57c2.21-61.95-4.51-92.7,51.16-94.68"/>
      <path class="cls-2" d="m1528.88,903.76h24.79c156.41,0,156.41,84.82,156.41,196.78h-106.61c-2.21-61.95,5.86-92.7-49.8-94.68h-24.79"/>
      <path class="cls-2" d="m1528.88,903.76c-157.73,0-157.73,84.82-157.73,196.78h106.57c2.21-61.95-4.51-92.7,51.16-94.68"/>
      <path class="cls-2" d="m1603.47,1243.35c0,126.31,77.09,222.24,202.69,222.24v-119.79c-69.5-2.48-96.09-30.88-96.09-102.48"/>
      <polyline class="cls-2" points="1138.83 1092.86 1138.83 1467.19 1245.44 1467.19 1245.44 1092.83"/>
      <polyline class="cls-2" points="1371.15 1092.86 1371.15 1467.19 1477.76 1467.19 1477.76 1092.83"/>
      <polyline class="cls-2" points="1603.47 1100.54 1603.67 1243.37 1710.28 1243.37 1710.08 1092.83"/>
    </g>
  </g>
</svg>